<svg xmlns="http://www.w3.org/2000/svg" viewBox="0 0 1200 1200" role="img" aria-labelledby="title desc">
  <title id="title">Matcha Milk Tea</title>
  <desc id="desc">Illustrated matcha milk tea cup on a soft green background.</desc>
  <defs>
    <linearGradient id="bg" x1="0" y1="0" x2="1" y2="1">
      <stop offset="0%" stop-color="#f8f4e8" />
      <stop offset="100%" stop-color="#dfeccd" />
    </linearGradient>
    <linearGradient id="drink" x1="0" y1="0" x2="0" y2="1">
      <stop offset="0%" stop-color="#9fc56a" />
      <stop offset="100%" stop-color="#5f8d3a" />
    </linearGradient>
    <linearGradient id="cup" x1="0" y1="0" x2="0" y2="1">
      <stop offset="0%" stop-color="#ffffff" stop-opacity="0.95" />
      <stop offset="100%" stop-color="#f7f2e7" stop-opacity="0.86" />
    </linearGradient>
  </defs>

  <rect width="1200" height="1200" fill="url(#bg)" />
  <circle cx="240" cy="210" r="140" fill="#ffffff" fill-opacity="0.42" />
  <circle cx="970" cy="290" r="170" fill="#f2c24d" fill-opacity="0.18" />
  <circle cx="930" cy="920" r="210" fill="#2c8a5d" fill-opacity="0.12" />

  <ellipse cx="600" cy="1000" rx="250" ry="52" fill="#6e7a59" fill-opacity="0.18" />

  <g transform="translate(0 18)">
    <path d="M430 250h340l-56 548c-6 58-55 102-113 102H599c-58 0-107-44-113-102L430 250Z" fill="url(#cup)" stroke="#d6cdbf" stroke-width="10" />
    <path d="M470 312h260l-42 434c-5 44-42 78-86 78H598c-44 0-81-34-86-78L470 312Z" fill="url(#drink)" opacity="0.94" />
    <rect x="440" y="238" width="320" height="50" rx="24" fill="#f8fbf4" stroke="#d8d3c8" stroke-width="10" />
    <rect x="610" y="140" width="18" height="120" rx="9" fill="#7dc08f" />
    <path d="M620 150c64 10 112 42 144 100" fill="none" stroke="#63a86f" stroke-width="18" stroke-linecap="round" />
    <circle cx="548" cy="430" r="18" fill="#edf6e6" fill-opacity="0.65" />
    <circle cx="650" cy="520" r="12" fill="#edf6e6" fill-opacity="0.5" />
    <circle cx="565" cy="600" r="14" fill="#edf6e6" fill-opacity="0.45" />
    <circle cx="662" cy="670" r="18" fill="#edf6e6" fill-opacity="0.42" />
    <circle cx="720" cy="870" r="20" fill="#2f2418" fill-opacity="0.84" />
    <circle cx="600" cy="900" r="22" fill="#2f2418" fill-opacity="0.84" />
    <circle cx="485" cy="852" r="18" fill="#2f2418" fill-opacity="0.84" />
    <circle cx="530" cy="945" r="20" fill="#2f2418" fill-opacity="0.84" />
    <circle cx="688" cy="948" r="18" fill="#2f2418" fill-opacity="0.84" />
  </g>

  <text x="600" y="1075" text-anchor="middle" fill="#1f6b47" font-family="Georgia, serif" font-size="72" font-weight="700">Matcha Milk Tea</text>
</svg>
